<svg width="593" height="192" viewBox="0 0 593 192" fill="none" xmlns="http://www.w3.org/2000/svg">
<path fill-rule="evenodd" clip-rule="evenodd" d="M70.7188 0C94.2918 21.3355 117.863 24.8917 130.96 24.8917C137.509 24.8917 141.438 24 141.438 24V69.8133C141.438 165.813 70.7188 192 70.7188 192C70.7188 192 0 165.813 0 69.8133V24C0 24 4.71459 24.8917 12.0486 24.8917C26.7166 24.8917 51.8605 21.3333 70.7188 0ZM43.1013 138.24L49.9498 117.782H91.339L98.1875 138.24H120.222L82.8527 30.7201H58.585L21.2156 138.24H43.1013ZM70.6444 55.6389L85.6814 100.554H55.6073L70.6444 55.6389Z" fill="#034F94"/>
<path opacity="0.75" fill-rule="evenodd" clip-rule="evenodd" d="M113.15 55.336L66.0211 145.92L28.2875 102.638L39.7023 89.8326L62.7853 116.31L99.3246 46.08L113.15 55.336Z" fill="#EFEFEF"/>
<path d="M202.935 82.9288V138.24H189.972V131.251C188.317 133.647 186.141 135.544 183.445 136.942C180.809 138.273 177.929 138.939 174.803 138.939C170.819 138.939 167.295 138.04 164.23 136.243C161.166 134.38 158.745 131.684 156.968 128.156C155.251 124.562 154.393 120.302 154.393 115.377V82.9288H167.264V113.38C167.264 117.773 168.275 121.167 170.298 123.564C172.321 125.893 175.079 127.058 178.572 127.058C182.127 127.058 184.916 125.893 186.938 123.564C188.961 121.167 189.972 117.773 189.972 113.38V82.9288H202.935Z" fill="#034F94"/>
<path d="M230.619 94.4104V121.167C230.619 123.031 231.018 124.396 231.814 125.261C232.673 126.06 234.082 126.459 236.043 126.459H242.019V138.24H233.929C223.081 138.24 217.657 132.516 217.657 121.068V94.4104H211.589V82.9288H217.657V69.2507H230.619V82.9288H242.019V94.4104H230.619Z" fill="#034F94"/>
<path d="M279.96 82.1301C283.821 82.1301 287.254 83.0619 290.257 84.9256C293.26 86.7227 295.589 89.4184 297.244 93.0126C298.96 96.5403 299.818 100.8 299.818 105.792V138.24H286.947V107.689C286.947 103.296 285.936 99.9349 283.913 97.6053C281.891 95.2091 279.133 94.011 275.639 94.011C272.084 94.011 269.265 95.2091 267.181 97.6053C265.159 99.9349 264.147 103.296 264.147 107.689V138.24H251.277V64.3585H264.147V89.8177C265.802 87.4216 268.009 85.5579 270.767 84.2267C273.525 82.8289 276.589 82.1301 279.96 82.1301Z" fill="#034F94"/>
<path d="M359.404 109.386C359.404 111.383 359.281 113.18 359.036 114.778H321.803C322.109 118.771 323.396 121.9 325.664 124.163C327.932 126.426 330.72 127.557 334.03 127.557C338.81 127.557 342.212 125.327 344.235 120.868H358.117C356.646 126.193 353.826 130.586 349.659 134.047C345.491 137.441 340.373 139.139 334.306 139.139C329.402 139.139 324.99 137.974 321.067 135.644C317.206 133.248 314.172 129.887 311.966 125.56C309.82 121.234 308.748 116.242 308.748 110.584C308.748 104.86 309.82 99.835 311.966 95.5086C314.111 91.1822 317.114 87.8542 320.975 85.5246C324.836 83.195 329.28 82.0302 334.306 82.0302C339.148 82.0302 343.468 83.1617 347.268 85.4248C351.13 87.6878 354.102 90.916 356.186 95.1093C358.331 99.236 359.404 103.995 359.404 109.386ZM346.073 105.393C346.012 101.799 344.817 98.9365 342.488 96.8065C340.159 94.6101 337.309 93.5118 333.938 93.5118C330.751 93.5118 328.054 94.5768 325.848 96.7067C323.702 98.7701 322.385 101.665 321.894 105.393H346.073Z" fill="#034F94"/>
<path d="M397.022 82.1301C403.09 82.1301 407.993 84.2267 411.732 88.42C415.47 92.5467 417.34 98.3374 417.34 105.792V138.24H404.469V107.689C404.469 103.296 403.458 99.9349 401.435 97.6053C399.412 95.2091 396.654 94.011 393.161 94.011C389.606 94.011 386.787 95.2091 384.703 97.6053C382.68 99.9349 381.669 103.296 381.669 107.689V138.24H368.798V82.9288H381.669V89.8177C383.385 87.4216 385.561 85.5579 388.196 84.2267C390.893 82.8289 393.835 82.1301 397.022 82.1301Z" fill="#034F94"/>
<path d="M444.565 94.4104V121.167C444.565 123.031 444.963 124.396 445.76 125.261C446.618 126.06 448.027 126.459 449.989 126.459H455.964V138.24H447.874C437.026 138.24 431.602 132.516 431.602 121.068V94.4104H425.534V82.9288H431.602V69.2507H444.565V82.9288H455.964V94.4104H444.565Z" fill="#034F94"/>
<path d="M471.749 76.3393C469.481 76.3393 467.581 75.5739 466.049 74.043C464.578 72.4456 463.843 70.4821 463.843 68.1525C463.843 65.8229 464.578 63.8926 466.049 62.3617C467.581 60.7643 469.481 59.9656 471.749 59.9656C474.017 59.9656 475.886 60.7643 477.357 62.3617C478.889 63.8926 479.656 65.8229 479.656 68.1525C479.656 70.4821 478.889 72.4456 477.357 74.043C475.886 75.5739 474.017 76.3393 471.749 76.3393ZM478.093 82.9288V138.24H465.222V82.9288H478.093Z" fill="#034F94"/>
<path d="M487.499 110.584C487.499 104.86 488.572 99.8683 490.717 95.6085C492.862 91.2821 495.835 87.9541 499.635 85.6245C503.435 83.2283 507.786 82.0302 512.689 82.0302C519.002 82.0302 524.212 83.7608 528.318 87.2219C532.486 90.6165 535.275 95.4088 536.684 101.599H522.802C522.067 99.2027 520.81 97.339 519.033 96.0078C517.317 94.6101 515.172 93.9112 512.597 93.9112C508.92 93.9112 506.009 95.3755 503.864 98.3041C501.719 101.166 500.646 105.26 500.646 110.584C500.646 115.843 501.719 119.936 503.864 122.865C506.009 125.727 508.92 127.158 512.597 127.158C517.807 127.158 521.209 124.629 522.802 119.57H536.684C535.275 125.56 532.486 130.32 528.318 133.847C524.151 137.375 518.941 139.139 512.689 139.139C507.786 139.139 503.435 137.974 499.635 135.644C495.835 133.248 492.862 129.92 490.717 125.66C488.572 121.334 487.499 116.309 487.499 110.584Z" fill="#034F94"/>
<path d="M576.268 138.24L558.984 114.678V138.24H546.113V64.3585H558.984V106.391L576.084 82.9288H592.816L570.384 110.684L593 138.24H576.268Z" fill="#034F94"/>
</svg>
